<svg width="501" height="487" viewBox="0 0 501 487" fill="none" xmlns="http://www.w3.org/2000/svg">
<path d="M191.524 474.089C189.981 479.264 187.748 481.769 181.524 485.589C175.766 486.738 172.48 486.705 166.524 485.589C153.606 480.768 146.259 477.545 133.023 471.089C120.169 463.423 112.949 458.815 100.024 449.589C78.801 432.942 68.1004 422.068 51.0238 400.089C40.1289 385.708 34.8427 376.998 26.5238 360.589C14.3468 333.439 9.1786 317.611 3.52382 288.089C-0.169097 256.755 0.212839 239.125 4.52382 207.589C8.58277 187.269 11.7012 176.09 19.0238 156.589C27.5234 137.848 32.7938 127.707 43.5238 110.589C56.1583 93.5509 63.7773 84.4438 79.0238 69.5894C93.0175 56.5031 101.285 49.8465 117.024 39.5894C135.932 28.2998 146.986 22.9157 167.524 15.0894C189.775 7.5714 202.255 4.88411 224.524 2.58938C246.395 0.28566 258.655 0.515347 280.524 3.08938C315.63 8.2101 334.717 13.9505 367.524 30.0894C411.204 55.0135 432.109 75.0043 462.524 118.089C480.431 149.933 488.339 169.075 496.024 207.089C501.394 243.114 501.573 263.553 495.024 300.589C487.836 333.301 480.438 351.35 462.024 383.089L443.524 409.089L421.024 432.589L401.024 449.589L378.524 464.589L356.524 476.089L333.024 486.089H323.524C317.614 482.75 314.877 480.489 313.524 474.089V458.089C313.695 446.185 313.675 439.772 313.524 428.589C313.595 414.713 313.557 407.161 313.524 393.589C310.172 377.066 306.952 369.215 297.524 359.089C311.777 356.999 319.768 355.56 334.024 352.089C352.244 345.932 360.884 341.538 373.524 332.089C385.801 320.807 391.419 313.576 398.524 298.589C404.941 281.686 407.169 272.057 408.524 254.589C409.571 232.698 408.732 222.343 404.524 207.589C399.534 192.887 394.882 185.068 384.524 171.589C387.977 159.397 389.182 152.595 388.524 140.589C387.416 126.078 385.779 118.62 381.024 106.589C358.052 107.311 343.263 113.121 314.024 131.589C297.926 128.086 288.857 126.438 272.524 124.589C258.461 123.442 250.591 123.347 236.524 124.089C218.633 125.53 208.68 127.286 191.024 131.589L172.524 120.589C164.276 116.089 159.477 113.876 150.524 110.589C140.252 107.239 134.446 106.31 124.024 106.589C118.584 120.648 117.222 129.055 116.524 144.589C117.031 154.887 118.059 160.787 121.524 171.589C116.152 177.364 113.385 180.974 109.024 188.089C105.458 194.993 103.675 199.019 101.024 206.589C96.0411 225.177 95.3174 236.286 97.0238 257.089L102.524 286.089C105.703 296.073 108.248 301.656 114.024 311.589C120.01 319.517 123.887 324.001 132.024 332.089C141.431 338.49 147.051 341.916 158.024 347.589L182.024 355.089L207.024 359.589C198.47 369.986 195.344 377.235 192.024 392.089L177.524 397.089C170.548 398.386 166.452 398.441 159.024 398.089C150.977 397.356 146.492 395.903 138.524 391.089C131.41 386.273 128.06 383.039 123.524 376.089C118.182 367.891 114.822 363.528 107.524 356.589C101.157 351.931 97.1549 349.451 86.5238 346.089C86.5238 346.089 68.0238 347.089 72.0238 353.089C76.0238 359.089 88.4853 366.032 91.0238 369.589C98.3404 378.554 101.923 384.171 107.524 395.089C113.076 406.782 115.104 409.886 117.524 411.589C126.716 422.18 133.408 425.355 147.524 427.089C156.828 429.932 167.568 429.533 191.524 427.089V474.089Z" fill="#333333" stroke="black"/>
</svg>
