<svg width="500" height="500" viewBox="0 0 500 500" fill="none" xmlns="http://www.w3.org/2000/svg">
<path fill-rule="evenodd" clip-rule="evenodd" d="M250 500C388.071 500 500 388.071 500 250C500 111.929 388.071 0 250 0C111.929 0 0 111.929 0 250C0 388.071 111.929 500 250 500ZM178.812 122.494C167.663 119.935 161.758 120.295 152.312 126.494C144.079 134.803 142.86 140.768 144.812 152.994C148.811 161.783 152.461 164.876 160.812 167.994C171.828 169.328 177.151 168.371 185.312 163.994C192.901 156.312 195.088 151.375 193.812 140.994C191.695 131.738 189.142 127.29 178.812 122.494ZM192.966 187.994H144.813V343.263H192.966V187.994ZM220.313 187.994L221.813 215.994V343.264H270.313V267.494L270.317 266.547C270.38 252.208 270.416 243.881 273.813 236.994C279.739 228.302 284.232 225.048 295.313 223.494C305.736 223.729 310.256 226.765 316.813 235.494C320.277 244.778 320.844 251.175 320.813 263.494L320.313 343.494H369.313V262.494L368.313 236.494C365.416 221.672 362.802 213.774 353.813 201.494C344.159 192.748 337.899 188.711 323.813 184.494C309.725 183.999 302.035 184.188 290.313 188.994C278.339 194.594 273.175 199.421 265.313 209.494L262.313 187.994H220.313Z" fill="#333333"/>
</svg>
