<svg width="500" height="500" viewBox="0 0 500 500" fill="none" xmlns="http://www.w3.org/2000/svg">
<mask id="path-1-inside-1_66_250" fill="white">
<path fill-rule="evenodd" clip-rule="evenodd" d="M250 500C388.071 500 500 388.071 500 250C500 111.929 388.071 0 250 0C111.929 0 0 111.929 0 250C0 388.071 111.929 500 250 500ZM165 360C225.751 360 275 310.751 275 250C275 189.249 225.751 140 165 140C104.249 140 55 189.249 55 250C55 310.751 104.249 360 165 360ZM397 250C397 307.99 371.928 355 341 355C310.072 355 285 307.99 285 250C285 192.01 310.072 145 341 145C371.928 145 397 192.01 397 250ZM428.5 350C440.374 350 450 306.795 450 253.5C450 200.205 440.374 157 428.5 157C416.626 157 407 200.205 407 253.5C407 306.795 416.626 350 428.5 350Z"/>
</mask>
<path fill-rule="evenodd" clip-rule="evenodd" d="M250 500C388.071 500 500 388.071 500 250C500 111.929 388.071 0 250 0C111.929 0 0 111.929 0 250C0 388.071 111.929 500 250 500ZM165 360C225.751 360 275 310.751 275 250C275 189.249 225.751 140 165 140C104.249 140 55 189.249 55 250C55 310.751 104.249 360 165 360ZM397 250C397 307.99 371.928 355 341 355C310.072 355 285 307.99 285 250C285 192.01 310.072 145 341 145C371.928 145 397 192.01 397 250ZM428.5 350C440.374 350 450 306.795 450 253.5C450 200.205 440.374 157 428.5 157C416.626 157 407 200.205 407 253.5C407 306.795 416.626 350 428.5 350Z" fill="#333333"/>
<path d="M499 250C499 387.519 387.519 499 250 499V501C388.623 501 501 388.623 501 250H499ZM250 1C387.519 1 499 112.481 499 250H501C501 111.377 388.623 -1 250 -1V1ZM1 250C1 112.481 112.481 1 250 1V-1C111.377 -1 -1 111.377 -1 250H1ZM250 499C112.481 499 1 387.519 1 250H-1C-1 388.623 111.377 501 250 501V499ZM274 250C274 310.199 225.199 359 165 359V361C226.304 361 276 311.304 276 250H274ZM165 141C225.199 141 274 189.801 274 250H276C276 188.696 226.304 139 165 139V141ZM56 250C56 189.801 104.801 141 165 141V139C103.696 139 54 188.696 54 250H56ZM165 359C104.801 359 56 310.199 56 250H54C54 311.304 103.696 361 165 361V359ZM341 356C357.013 356 371.278 343.847 381.48 324.717C391.706 305.544 398 279.126 398 250H396C396 278.864 389.758 304.946 379.716 323.776C369.65 342.648 355.915 354 341 354V356ZM284 250C284 279.126 290.294 305.544 300.52 324.717C310.722 343.847 324.987 356 341 356V354C326.085 354 312.35 342.648 302.284 323.776C292.242 304.946 286 278.864 286 250H284ZM341 144C324.987 144 310.722 156.153 300.52 175.283C290.294 194.456 284 220.874 284 250H286C286 221.136 292.242 195.054 302.284 176.224C312.35 157.352 326.085 146 341 146V144ZM398 250C398 220.874 391.706 194.456 381.48 175.283C371.278 156.153 357.013 144 341 144V146C355.915 146 369.65 157.352 379.716 176.224C389.758 195.054 396 221.136 396 250H398ZM449 253.5C449 280.097 446.597 304.146 442.727 321.518C440.79 330.213 438.497 337.181 435.984 341.951C434.727 344.336 433.441 346.124 432.157 347.303C430.878 348.477 429.659 349 428.5 349V351C430.309 351 431.989 350.173 433.509 348.776C435.025 347.384 436.438 345.38 437.754 342.883C440.385 337.886 442.725 330.722 444.679 321.953C448.59 304.4 451 280.198 451 253.5H449ZM428.5 158C429.659 158 430.878 158.523 432.157 159.697C433.441 160.876 434.727 162.664 435.984 165.049C438.497 169.819 440.79 176.787 442.727 185.482C446.597 202.854 449 226.903 449 253.5H451C451 226.802 448.59 202.6 444.679 185.047C442.725 176.278 440.385 169.114 437.754 164.117C436.438 161.62 435.025 159.616 433.509 158.224C431.989 156.827 430.309 156 428.5 156V158ZM408 253.5C408 226.903 410.403 202.854 414.273 185.482C416.21 176.787 418.503 169.819 421.016 165.049C422.273 162.664 423.559 160.876 424.843 159.697C426.122 158.523 427.341 158 428.5 158V156C426.691 156 425.011 156.827 423.491 158.224C421.975 159.616 420.562 161.62 419.246 164.117C416.615 169.114 414.275 176.278 412.321 185.047C408.41 202.6 406 226.802 406 253.5H408ZM428.5 349C427.341 349 426.122 348.477 424.843 347.303C423.559 346.124 422.273 344.336 421.016 341.951C418.503 337.181 416.21 330.213 414.273 321.518C410.403 304.146 408 280.097 408 253.5H406C406 280.198 408.41 304.4 412.321 321.953C414.275 330.722 416.615 337.886 419.246 342.883C420.562 345.38 421.975 347.384 423.491 348.776C425.011 350.173 426.691 351 428.5 351V349Z" fill="black" mask="url(#path-1-inside-1_66_250)"/>
</svg>
