<svg width="500" height="500" viewBox="0 0 500 500" fill="none" xmlns="http://www.w3.org/2000/svg">
<mask id="path-1-inside-1_66_251" fill="white">
<path fill-rule="evenodd" clip-rule="evenodd" d="M250 500C388.071 500 500 388.071 500 250C500 111.929 388.071 0 250 0C111.929 0 0 111.929 0 250C0 388.071 111.929 500 250 500ZM325 102.5L349.5 98L367.5 218L343 220L325 102.5ZM252 140L316.5 235.5L338.5 224.5L274 124.5L252 140ZM200.5 202L301 262.5L314 242.5L212 180L200.5 202ZM178.5 264.5L185 238L300.5 269L294 293.5L178.5 264.5ZM154 276H132V402.5H329.5V276H307.5V380H154V276ZM169.5 362.221V333.5H289.5V362.221H169.5ZM289.5 327L169.5 318L174 291L291.5 302.5L289.5 327Z"/>
</mask>
<path fill-rule="evenodd" clip-rule="evenodd" d="M250 500C388.071 500 500 388.071 500 250C500 111.929 388.071 0 250 0C111.929 0 0 111.929 0 250C0 388.071 111.929 500 250 500ZM325 102.5L349.5 98L367.5 218L343 220L325 102.5ZM252 140L316.5 235.5L338.5 224.5L274 124.5L252 140ZM200.5 202L301 262.5L314 242.5L212 180L200.5 202ZM178.5 264.5L185 238L300.5 269L294 293.5L178.5 264.5ZM154 276H132V402.5H329.5V276H307.5V380H154V276ZM169.5 362.221V333.5H289.5V362.221H169.5ZM289.5 327L169.5 318L174 291L291.5 302.5L289.5 327Z" fill="#333333"/>
<path d="M349.5 98L350.489 97.8517L350.336 96.8298L349.319 97.0165L349.5 98ZM325 102.5L324.819 101.516L323.865 101.692L324.012 102.651L325 102.5ZM367.5 218L367.581 218.997L368.648 218.91L368.489 217.852L367.5 218ZM343 220L342.012 220.151L342.153 221.072L343.081 220.997L343 220ZM316.5 235.5L315.671 236.06L316.162 236.787L316.947 236.394L316.5 235.5ZM252 140L251.424 139.183L250.623 139.747L251.171 140.56L252 140ZM338.5 224.5L338.947 225.394L339.945 224.896L339.34 223.958L338.5 224.5ZM274 124.5L274.84 123.958L274.276 123.083L273.424 123.683L274 124.5ZM301 262.5L300.484 263.357L301.312 263.855L301.838 263.045L301 262.5ZM200.5 202L199.614 201.537L199.178 202.371L199.984 202.857L200.5 202ZM314 242.5L314.838 243.045L315.398 242.184L314.522 241.647L314 242.5ZM212 180L212.522 179.147L211.61 178.588L211.114 179.537L212 180ZM185 238L185.259 237.034L184.272 236.769L184.029 237.762L185 238ZM178.5 264.5L177.529 264.262L177.292 265.228L178.256 265.47L178.5 264.5ZM300.5 269L301.467 269.256L301.722 268.293L300.759 268.034L300.5 269ZM294 293.5L293.756 294.47L294.714 294.71L294.967 293.756L294 293.5ZM132 276V275H131V276H132ZM154 276H155V275H154V276ZM132 402.5H131V403.5H132V402.5ZM329.5 402.5V403.5H330.5V402.5H329.5ZM329.5 276H330.5V275H329.5V276ZM307.5 276V275H306.5V276H307.5ZM307.5 380V381H308.5V380H307.5ZM154 380H153V381H154V380ZM169.5 333.5V332.5H168.5V333.5H169.5ZM169.5 362.221H168.5V363.221H169.5V362.221ZM289.5 333.5H290.5V332.5H289.5V333.5ZM289.5 362.221V363.221H290.5V362.221H289.5ZM169.5 318L168.514 317.836L168.334 318.915L169.425 318.997L169.5 318ZM289.5 327L289.425 327.997L290.416 328.071L290.497 327.081L289.5 327ZM174 291L174.097 290.005L173.167 289.914L173.014 290.836L174 291ZM291.5 302.5L292.497 302.581L292.577 301.601L291.597 301.505L291.5 302.5ZM499 250C499 387.519 387.519 499 250 499V501C388.623 501 501 388.623 501 250H499ZM250 1C387.519 1 499 112.481 499 250H501C501 111.377 388.623 -1 250 -1V1ZM1 250C1 112.481 112.481 1 250 1V-1C111.377 -1 -1 111.377 -1 250H1ZM250 499C112.481 499 1 387.519 1 250H-1C-1 388.623 111.377 501 250 501V499ZM349.319 97.0165L324.819 101.516L325.181 103.484L349.681 98.9835L349.319 97.0165ZM368.489 217.852L350.489 97.8517L348.511 98.1483L366.511 218.148L368.489 217.852ZM343.081 220.997L367.581 218.997L367.419 217.003L342.919 219.003L343.081 220.997ZM324.012 102.651L342.012 220.151L343.988 219.849L325.988 102.349L324.012 102.651ZM317.329 234.94L252.829 139.44L251.171 140.56L315.671 236.06L317.329 234.94ZM338.053 223.606L316.053 234.606L316.947 236.394L338.947 225.394L338.053 223.606ZM273.16 125.042L337.66 225.042L339.34 223.958L274.84 123.958L273.16 125.042ZM252.576 140.817L274.576 125.317L273.424 123.683L251.424 139.183L252.576 140.817ZM301.516 261.643L201.016 201.143L199.984 202.857L300.484 263.357L301.516 261.643ZM313.162 241.955L300.162 261.955L301.838 263.045L314.838 243.045L313.162 241.955ZM211.478 180.853L313.478 243.353L314.522 241.647L212.522 179.147L211.478 180.853ZM201.386 202.463L212.886 180.463L211.114 179.537L199.614 201.537L201.386 202.463ZM184.029 237.762L177.529 264.262L179.471 264.738L185.971 238.238L184.029 237.762ZM300.759 268.034L185.259 237.034L184.741 238.966L300.241 269.966L300.759 268.034ZM294.967 293.756L301.467 269.256L299.533 268.744L293.033 293.244L294.967 293.756ZM178.256 265.47L293.756 294.47L294.244 292.53L178.744 263.53L178.256 265.47ZM132 277H154V275H132V277ZM133 402.5V276H131V402.5H133ZM329.5 401.5H132V403.5H329.5V401.5ZM328.5 276V402.5H330.5V276H328.5ZM307.5 277H329.5V275H307.5V277ZM308.5 380V276H306.5V380H308.5ZM154 381H307.5V379H154V381ZM153 276V380H155V276H153ZM168.5 333.5V362.221H170.5V333.5H168.5ZM289.5 332.5H169.5V334.5H289.5V332.5ZM290.5 362.221V333.5H288.5V362.221H290.5ZM169.5 363.221H289.5V361.221H169.5V363.221ZM169.425 318.997L289.425 327.997L289.575 326.003L169.575 317.003L169.425 318.997ZM173.014 290.836L168.514 317.836L170.486 318.164L174.986 291.164L173.014 290.836ZM291.597 301.505L174.097 290.005L173.903 291.995L291.403 303.495L291.597 301.505ZM290.497 327.081L292.497 302.581L290.503 302.419L288.503 326.919L290.497 327.081Z" fill="black" mask="url(#path-1-inside-1_66_251)"/>
</svg>
